<svg width="70" height="70" viewBox="0 0 70 70" fill="none" xmlns="http://www.w3.org/2000/svg">
<rect width="70" height="70" fill="white"/>
<mask id="path-1-inside-1" fill="white">
<path d="M4 29C4 26.7909 5.79086 25 8 25H60C62.2091 25 64 26.7909 64 29V49C64 50.1046 63.1046 51 62 51H6C4.89543 51 4 50.1046 4 49V29Z"/>
</mask>
<path d="M4 29C4 26.7909 5.79086 25 8 25H60C62.2091 25 64 26.7909 64 29V49C64 50.1046 63.1046 51 62 51H6C4.89543 51 4 50.1046 4 49V29Z" stroke="#335D2D" stroke-width="6" mask="url(#path-1-inside-1)"/>
<rect x="53" y="42" width="0" height="47" transform="rotate(90 53 42)" stroke="#335D2D" stroke-width="2" stroke-linecap="round" stroke-linejoin="round"/>
<path d="M57.5 55L57.2725 55.3576C55.2628 58.5156 55.1851 62.5317 57.0713 65.765L57.5 66.5" stroke="#335D2D" stroke-width="2" stroke-linecap="round" stroke-linejoin="round"/>
<path d="M13 55L13.2275 55.3576C15.2372 58.5156 15.3149 62.5317 13.4287 65.765L13 66.5" stroke="#335D2D" stroke-width="2" stroke-linecap="round" stroke-linejoin="round"/>
<path d="M23 55L23.2275 55.3576C25.2372 58.5156 25.3149 62.5317 23.4287 65.765L23 66.5" stroke="#335D2D" stroke-width="2" stroke-linecap="round" stroke-linejoin="round"/>
<path d="M47.5 55L47.2725 55.3576C45.2628 58.5156 45.1851 62.5317 47.0713 65.765L47.5 66.5" stroke="#335D2D" stroke-width="2" stroke-linecap="round" stroke-linejoin="round"/>
<rect x="27" y="35" width="1" height="14" transform="rotate(-90 27 35)" stroke="#335D2D" stroke-width="2" stroke-linecap="round" stroke-linejoin="round"/>
</svg>
