<svg width="48" height="48" viewBox="0 0 48 48" fill="none" xmlns="http://www.w3.org/2000/svg">
<path d="M35.5 40.5C35.5 40.7244 35.3947 41.0826 34.8985 41.5605C34.3981 42.0425 33.5952 42.5456 32.48 42.9999C30.2572 43.9055 27.083 44.5 23.5 44.5C19.917 44.5 16.7428 43.9055 14.52 42.9999C13.4048 42.5456 12.6019 42.0425 12.1015 41.5605C11.6053 41.0826 11.5 40.7244 11.5 40.5C11.5 40.2756 11.6053 39.9174 12.1015 39.4395C12.6019 38.9575 13.4048 38.4544 14.52 38.0001C16.7428 37.0945 19.917 36.5 23.5 36.5C27.083 36.5 30.2572 37.0945 32.48 38.0001C33.5952 38.4544 34.3981 38.9575 34.8985 39.4395C35.3947 39.9174 35.5 40.2756 35.5 40.5Z" stroke="#335D2D" stroke-width="3"/>
<path d="M34.5 15.75C34.5 18.7299 33.1709 24.8404 30.9515 30.2381C29.8476 32.9228 28.5656 35.3244 27.1965 37.0274C25.7869 38.7808 24.5283 39.5 23.5 39.5C22.4717 39.5 21.2131 38.7808 19.8035 37.0274C18.4344 35.3244 17.1524 32.9228 16.0485 30.2381C13.829 24.8404 12.5 18.7299 12.5 15.75C12.5 10.1752 17.3361 5.5 23.5 5.5C29.6639 5.5 34.5 10.1752 34.5 15.75Z" fill="white" stroke="#335D2D" stroke-width="3"/>
<circle cx="23.5" cy="16.5" r="4" stroke="#509ED8" stroke-width="3"/>
</svg>
