<svg width="48" height="48" viewBox="0 0 48 48" fill="none" xmlns="http://www.w3.org/2000/svg">
<mask id="path-1-inside-1" fill="white">
<path fill-rule="evenodd" clip-rule="evenodd" d="M18.4009 12C17.5598 12 16.8087 12.5261 16.5213 13.3165L15.5455 16H10C5.58172 16 2 19.5817 2 24V38C2 42.4183 5.58172 46 10 46H39C43.4183 46 47 42.4183 47 38V24C47 19.5817 43.4183 16 39 16H32.4545L31.4787 13.3165C31.1913 12.5261 30.4402 12 29.5991 12H18.4009Z"/>
</mask>
<path d="M16.5213 13.3165L19.3406 14.3417L19.3406 14.3417L16.5213 13.3165ZM15.5455 16V19H17.6467L18.3648 17.0252L15.5455 16ZM32.4545 16L29.6352 17.0252L30.3533 19H32.4545V16ZM31.4787 13.3165L34.2981 12.2913L34.2981 12.2913L31.4787 13.3165ZM19.3406 14.3417C19.1969 14.7369 18.8214 15 18.4009 15V9C16.2983 9 14.4204 10.3153 13.7019 12.2913L19.3406 14.3417ZM18.3648 17.0252L19.3406 14.3417L13.7019 12.2913L12.7261 14.9748L18.3648 17.0252ZM10 19H15.5455V13H10V19ZM5 24C5 21.2386 7.23858 19 10 19V13C3.92487 13 -1 17.9249 -1 24H5ZM5 38V24H-1V38H5ZM10 43C7.23858 43 5 40.7614 5 38H-1C-1 44.0751 3.92487 49 10 49V43ZM39 43H10V49H39V43ZM44 38C44 40.7614 41.7614 43 39 43V49C45.0751 49 50 44.0751 50 38H44ZM44 24V38H50V24H44ZM39 19C41.7614 19 44 21.2386 44 24H50C50 17.9249 45.0751 13 39 13V19ZM32.4545 19H39V13H32.4545V19ZM28.6594 14.3417L29.6352 17.0252L35.2739 14.9748L34.2981 12.2913L28.6594 14.3417ZM29.5991 15C29.1786 15 28.8031 14.7369 28.6594 14.3417L34.2981 12.2913C33.5796 10.3153 31.7017 9 29.5991 9V15ZM18.4009 15H29.5991V9H18.4009V15Z" fill="#335D2D" mask="url(#path-1-inside-1)"/>
<circle cx="22" cy="31" r="7.5" stroke="#509ED8" stroke-width="3"/>
<path d="M39.4945 22.4581L39.505 23.4581L31.5055 23.5419L31.495 22.5419L39.4945 22.4581Z" stroke="#335D2D" stroke-width="2" stroke-linecap="round" stroke-linejoin="round"/>
</svg>
