<svg width="70" height="70" viewBox="0 0 70 70" fill="none" xmlns="http://www.w3.org/2000/svg">
<rect width="70" height="70" fill="white"/>
<mask id="path-1-inside-1" fill="white">
<path d="M18 35C18 32.7909 19.7909 31 22 31H50C52.2091 31 54 32.7909 54 35V45C54 46.1046 53.1046 47 52 47H20C18.8954 47 18 46.1046 18 45V35Z"/>
</mask>
<path d="M18 35C18 32.7909 19.7909 31 22 31H50C52.2091 31 54 32.7909 54 35V45C54 46.1046 53.1046 47 52 47H20C18.8954 47 18 46.1046 18 45V35Z" stroke="#335D2D" stroke-width="6" mask="url(#path-1-inside-1)"/>
<rect x="27" y="47" width="1" height="8" stroke="#335D2D" stroke-width="2" stroke-linecap="round" stroke-linejoin="round"/>
<rect x="43" y="47" width="1" height="8" stroke="#335D2D" stroke-width="2" stroke-linecap="round" stroke-linejoin="round"/>
<rect x="35" y="16" width="1" height="15" stroke="#335D2D" stroke-width="2" stroke-linecap="round" stroke-linejoin="round"/>
<rect x="40" y="16" width="1" height="4" stroke="#335D2D" stroke-width="2" stroke-linecap="round" stroke-linejoin="round"/>
<path d="M22.3125 1.65642C22.4567 1.26218 22.8318 1 23.2516 1H47.8498C48.2504 1 48.6123 1.23903 48.7696 1.60744L53.8915 13.6074C54.1731 14.2671 53.6891 15 52.9718 15H18.8614C18.1666 15 17.6835 14.3089 17.9222 13.6564L22.3125 1.65642Z" stroke="#509ED8" stroke-width="2"/>
</svg>
